<mxfile host="app.diagrams.net" modified="2023-11-19T16:02:01.206Z" agent="Mozilla/5.0 (Windows NT 10.0; Win64; x64; rv:109.0) Gecko/20100101 Firefox/119.0" etag="wDEErmS2TqOK1h929upj" version="22.1.3" type="github">
  <diagram name="Page-1" id="c7558073-3199-34d8-9f00-42111426c3f3">
    <mxGraphModel dx="-7" dy="426" grid="1" gridSize="10" guides="1" tooltips="1" connect="1" arrows="1" fold="1" page="1" pageScale="1" pageWidth="826" pageHeight="1169" background="none" math="0" shadow="0">
      <root>
        <mxCell id="0" />
        <mxCell id="1" parent="0" />
        <mxCell id="O1FrOAGbyvd83Z-hj354-107" value="" style="edgeStyle=orthogonalEdgeStyle;rounded=0;orthogonalLoop=1;jettySize=auto;html=1;fillColor=#e51400;strokeColor=#B20000;" edge="1" parent="1" source="15" target="O1FrOAGbyvd83Z-hj354-96">
          <mxGeometry relative="1" as="geometry" />
        </mxCell>
        <mxCell id="15" value="5V&#xa;USB&#xa;" style="whiteSpace=wrap;align=center;verticalAlign=middle;fontStyle=1;strokeWidth=3;fillColor=#FFFFCC" parent="1" vertex="1">
          <mxGeometry x="880" y="281" width="90" height="60" as="geometry" />
        </mxCell>
        <mxCell id="O1FrOAGbyvd83Z-hj354-109" value="" style="edgeStyle=orthogonalEdgeStyle;rounded=0;orthogonalLoop=1;jettySize=auto;html=1;fillColor=#e51400;strokeColor=#B20000;" edge="1" parent="1" source="O1FrOAGbyvd83Z-hj354-96" target="O1FrOAGbyvd83Z-hj354-99">
          <mxGeometry relative="1" as="geometry" />
        </mxCell>
        <mxCell id="O1FrOAGbyvd83Z-hj354-124" value="&lt;div&gt;4,2V&lt;/div&gt;&lt;div&gt;&lt;br&gt;&lt;/div&gt;" style="edgeLabel;html=1;align=center;verticalAlign=middle;resizable=0;points=[];" vertex="1" connectable="0" parent="O1FrOAGbyvd83Z-hj354-109">
          <mxGeometry x="-0.0719" y="2" relative="1" as="geometry">
            <mxPoint x="-17" y="7" as="offset" />
          </mxGeometry>
        </mxCell>
        <mxCell id="O1FrOAGbyvd83Z-hj354-96" value="Charger" style="whiteSpace=wrap;align=center;verticalAlign=middle;fontStyle=1;strokeWidth=3;fillColor=#FFFFCC" vertex="1" parent="1">
          <mxGeometry x="1040" y="281" width="90" height="60" as="geometry" />
        </mxCell>
        <mxCell id="O1FrOAGbyvd83Z-hj354-111" value="" style="edgeStyle=orthogonalEdgeStyle;rounded=0;orthogonalLoop=1;jettySize=auto;html=1;fillColor=#e51400;strokeColor=#B20000;" edge="1" parent="1" source="O1FrOAGbyvd83Z-hj354-97" target="O1FrOAGbyvd83Z-hj354-100">
          <mxGeometry relative="1" as="geometry" />
        </mxCell>
        <mxCell id="O1FrOAGbyvd83Z-hj354-97" value="DC/DC Converter" style="whiteSpace=wrap;align=center;verticalAlign=middle;fontStyle=1;strokeWidth=3;fillColor=#FFFFCC" vertex="1" parent="1">
          <mxGeometry x="1210" y="392" width="90" height="60" as="geometry" />
        </mxCell>
        <mxCell id="O1FrOAGbyvd83Z-hj354-98" value="LED Module" style="whiteSpace=wrap;align=center;verticalAlign=middle;fontStyle=1;strokeWidth=3;fillColor=#FFFFCC" vertex="1" parent="1">
          <mxGeometry x="1450" y="391" width="90" height="60" as="geometry" />
        </mxCell>
        <mxCell id="O1FrOAGbyvd83Z-hj354-110" value="" style="edgeStyle=orthogonalEdgeStyle;rounded=0;orthogonalLoop=1;jettySize=auto;html=1;fillColor=#e51400;strokeColor=#B20000;" edge="1" parent="1" source="O1FrOAGbyvd83Z-hj354-104" target="O1FrOAGbyvd83Z-hj354-97">
          <mxGeometry relative="1" as="geometry" />
        </mxCell>
        <mxCell id="O1FrOAGbyvd83Z-hj354-99" value="Li-Po Battery" style="whiteSpace=wrap;align=center;verticalAlign=middle;fontStyle=1;strokeWidth=3;fillColor=#FFFFCC" vertex="1" parent="1">
          <mxGeometry x="1040" y="392" width="90" height="60" as="geometry" />
        </mxCell>
        <mxCell id="O1FrOAGbyvd83Z-hj354-112" value="" style="edgeStyle=orthogonalEdgeStyle;rounded=0;orthogonalLoop=1;jettySize=auto;html=1;fillColor=#e51400;strokeColor=#B20000;" edge="1" parent="1" source="O1FrOAGbyvd83Z-hj354-100" target="O1FrOAGbyvd83Z-hj354-98">
          <mxGeometry relative="1" as="geometry" />
        </mxCell>
        <mxCell id="O1FrOAGbyvd83Z-hj354-100" value="LED Driver" style="whiteSpace=wrap;align=center;verticalAlign=middle;fontStyle=1;strokeWidth=3;fillColor=#FFFFCC" vertex="1" parent="1">
          <mxGeometry x="1330" y="391" width="90" height="60" as="geometry" />
        </mxCell>
        <mxCell id="O1FrOAGbyvd83Z-hj354-101" value="Touch sensor" style="whiteSpace=wrap;align=center;verticalAlign=middle;fontStyle=1;strokeWidth=3;fillColor=#FFFFCC" vertex="1" parent="1">
          <mxGeometry x="1040" y="512" width="90" height="60" as="geometry" />
        </mxCell>
        <mxCell id="O1FrOAGbyvd83Z-hj354-103" value="" style="pointerEvents=1;fillColor=strokeColor;verticalLabelPosition=bottom;shadow=0;dashed=0;align=center;html=1;verticalAlign=top;shape=mxgraph.electrical.diodes.schottky_diode;rotation=90;" vertex="1" parent="1">
          <mxGeometry x="1170" y="361" width="20" height="20" as="geometry" />
        </mxCell>
        <mxCell id="O1FrOAGbyvd83Z-hj354-114" value="" style="endArrow=classic;html=1;rounded=0;fillColor=#e51400;strokeColor=#B20000;" edge="1" parent="1">
          <mxGeometry width="50" height="50" relative="1" as="geometry">
            <mxPoint x="1000" y="310" as="sourcePoint" />
            <mxPoint x="1180" y="420" as="targetPoint" />
            <Array as="points">
              <mxPoint x="1000" y="260" />
              <mxPoint x="1090" y="260" />
              <mxPoint x="1180" y="260" />
            </Array>
          </mxGeometry>
        </mxCell>
        <mxCell id="O1FrOAGbyvd83Z-hj354-123" value="5V" style="edgeLabel;html=1;align=center;verticalAlign=middle;resizable=0;points=[];" vertex="1" connectable="0" parent="O1FrOAGbyvd83Z-hj354-114">
          <mxGeometry x="-0.0684" relative="1" as="geometry">
            <mxPoint x="-2" y="-9" as="offset" />
          </mxGeometry>
        </mxCell>
        <mxCell id="O1FrOAGbyvd83Z-hj354-117" value="" style="edgeStyle=orthogonalEdgeStyle;rounded=0;orthogonalLoop=1;jettySize=auto;html=1;fillColor=#e51400;strokeColor=#B20000;" edge="1" parent="1" source="O1FrOAGbyvd83Z-hj354-99" target="O1FrOAGbyvd83Z-hj354-104">
          <mxGeometry relative="1" as="geometry">
            <mxPoint x="1130" y="422" as="sourcePoint" />
            <mxPoint x="1210" y="422" as="targetPoint" />
          </mxGeometry>
        </mxCell>
        <mxCell id="O1FrOAGbyvd83Z-hj354-104" value="" style="verticalLabelPosition=bottom;shadow=0;dashed=0;align=center;html=1;verticalAlign=top;shape=mxgraph.electrical.mosfets1.p-channel_mosfet_1;rotation=-90;" vertex="1" parent="1">
          <mxGeometry x="1140" y="412" width="20" height="20" as="geometry" />
        </mxCell>
        <mxCell id="O1FrOAGbyvd83Z-hj354-118" value="" style="edgeStyle=orthogonalEdgeStyle;rounded=0;orthogonalLoop=1;jettySize=auto;html=1;fillColor=#e51400;strokeColor=#B20000;entryX=0.5;entryY=0;entryDx=0;entryDy=0;" edge="1" parent="1" target="O1FrOAGbyvd83Z-hj354-101">
          <mxGeometry relative="1" as="geometry">
            <mxPoint x="1180" y="420" as="sourcePoint" />
            <mxPoint x="1080" y="480" as="targetPoint" />
            <Array as="points">
              <mxPoint x="1180" y="480" />
              <mxPoint x="1085" y="480" />
            </Array>
          </mxGeometry>
        </mxCell>
        <mxCell id="O1FrOAGbyvd83Z-hj354-121" value="" style="edgeStyle=orthogonalEdgeStyle;rounded=0;orthogonalLoop=1;jettySize=auto;html=1;fillColor=#0050ef;strokeColor=#001DBC;exitX=1;exitY=0.5;exitDx=0;exitDy=0;entryX=0.5;entryY=1;entryDx=0;entryDy=0;" edge="1" parent="1" source="O1FrOAGbyvd83Z-hj354-101" target="O1FrOAGbyvd83Z-hj354-97">
          <mxGeometry relative="1" as="geometry">
            <mxPoint x="1230" y="534.5" as="sourcePoint" />
            <mxPoint x="1230" y="615.5" as="targetPoint" />
          </mxGeometry>
        </mxCell>
        <mxCell id="O1FrOAGbyvd83Z-hj354-122" value="ON/OFF" style="edgeLabel;html=1;align=center;verticalAlign=middle;resizable=0;points=[];" vertex="1" connectable="0" parent="O1FrOAGbyvd83Z-hj354-121">
          <mxGeometry x="-0.3876" y="-2" relative="1" as="geometry">
            <mxPoint y="-14" as="offset" />
          </mxGeometry>
        </mxCell>
      </root>
    </mxGraphModel>
  </diagram>
</mxfile>
